{
    "accessors" : [
        {
            "bufferView" : 0,
            "componentType" : 5123,
            "count" : 83970,
            "max" : [
                14996
            ],
            "min" : [
                0
            ],
            "type" : "SCALAR"
        },
        {
            "bufferView" : 1,
            "componentType" : 5126,
            "count" : 14997,
            "max" : [
                27308.96484375,
                -3279.9130859375,
                15861.53125
            ],
            "min" : [
                -37987.0546875,
                -30350.521484375,
                -22856.828125
            ],
            "type" : "VEC3"
        },
        {
            "bufferView" : 2,
            "componentType" : 5126,
            "count" : 14997,
            "max" : [
                0.999969482421875,
                1.0,
                0.9989928603172302
            ],
            "min" : [
                -0.999969482421875,
                -1.0,
                -0.9737541079521179
            ],
            "type" : "VEC3"
        },
        {
            "bufferView" : 3,
            "componentType" : 5126,
            "count" : 14997,
            "max" : [
                1.0,
                0.0,
                -0.0,
                -1.0
            ],
            "min" : [
                1.0,
                0.0,
                -0.0,
                -1.0
            ],
            "type" : "VEC4"
        },
        {
            "bufferView" : 4,
            "componentType" : 5126,
            "count" : 14997,
            "max" : [
                0.0,
                1.0
            ],
            "min" : [
                0.0,
                1.0
            ],
            "type" : "VEC2"
        },
        {
            "bufferView" : 5,
            "componentType" : 5123,
            "count" : 180,
            "max" : [
                79
            ],
            "min" : [
                0
            ],
            "type" : "SCALAR"
        },
        {
            "bufferView" : 6,
            "componentType" : 5126,
            "count" : 80,
            "max" : [
                -662.178466796875,
                588.4091186523438,
                2647.2890625
            ],
            "min" : [
                -8742.3447265625,
                388.35888671875,
                -1905.8515625
            ],
            "type" : "VEC3"
        },
        {
            "bufferView" : 7,
            "componentType" : 5126,
            "count" : 80,
            "max" : [
                0.6502273678779602,
                1.0,
                0.6602069139480591
            ],
            "min" : [
                -0.6502273678779602,
                -1.0,
                -0.6602069139480591
            ],
            "type" : "VEC3"
        },
        {
            "bufferView" : 8,
            "componentType" : 5126,
            "count" : 80,
            "max" : [
                1.0,
                0.8261974453926086,
                0.8209617137908936,
                1.0
            ],
            "min" : [
                -1.0,
                -0.826196014881134,
                -0.8209691643714905,
                1.0
            ],
            "type" : "VEC4"
        },
        {
            "bufferView" : 9,
            "componentType" : 5126,
            "count" : 80,
            "max" : [
                4.989109039306641,
                4.989109992980957
            ],
            "min" : [
                -3.989109992980957,
                -8.239298820495605
            ],
            "type" : "VEC2"
        },
        {
            "bufferView" : 10,
            "componentType" : 5125,
            "count" : 519195,
            "max" : [
                117382
            ],
            "min" : [
                0
            ],
            "type" : "SCALAR"
        },
        {
            "bufferView" : 11,
            "componentType" : 5126,
            "count" : 117383,
            "max" : [
                27701.962890625,
                -4810.5,
                16273.0859375
            ],
            "min" : [
                -39196.6875,
                -20100.224609375,
                -24369.5625
            ],
            "type" : "VEC3"
        },
        {
            "bufferView" : 12,
            "componentType" : 5126,
            "count" : 117383,
            "max" : [
                0.999969482421875,
                0.999969482421875,
                1.0
            ],
            "min" : [
                -0.999969482421875,
                -0.999847412109375,
                -1.0
            ],
            "type" : "VEC3"
        },
        {
            "bufferView" : 13,
            "componentType" : 5126,
            "count" : 117383,
            "max" : [
                1.0,
                0.0,
                -0.0,
                -1.0
            ],
            "min" : [
                1.0,
                0.0,
                -0.0,
                -1.0
            ],
            "type" : "VEC4"
        },
        {
            "bufferView" : 14,
            "componentType" : 5126,
            "count" : 117383,
            "max" : [
                0.0,
                1.0
            ],
            "min" : [
                0.0,
                1.0
            ],
            "type" : "VEC2"
        },
        {
            "bufferView" : 15,
            "componentType" : 5125,
            "count" : 211431,
            "max" : [
                90945
            ],
            "min" : [
                0
            ],
            "type" : "SCALAR"
        },
        {
            "bufferView" : 16,
            "componentType" : 5126,
            "count" : 90946,
            "max" : [
                27329.328125,
                -6730.48779296875,
                16732.375
            ],
            "min" : [
                -38751.35546875,
                -30350.51953125,
                -22943.41015625
            ],
            "type" : "VEC3"
        },
        {
            "bufferView" : 17,
            "componentType" : 5126,
            "count" : 90946,
            "max" : [
                1.0,
                1.0,
                1.0
            ],
            "min" : [
                -1.0,
                -0.999969482421875,
                -1.0
            ],
            "type" : "VEC3"
        },
        {
            "bufferView" : 18,
            "componentType" : 5126,
            "count" : 90946,
            "max" : [
                1.0,
                1.0,
                1.0,
                1.0
            ],
            "min" : [
                -1.0,
                -1.0,
                -1.0,
                -1.0
            ],
            "type" : "VEC4"
        },
        {
            "bufferView" : 19,
            "componentType" : 5126,
            "count" : 90946,
            "max" : [
                37314.296875,
                1896.3154296875
            ],
            "min" : [
                -27975.6171875,
                -38000.703125
            ],
            "type" : "VEC2"
        },
        {
            "bufferView" : 20,
            "componentType" : 5125,
            "count" : 1008345,
            "max" : [
                210804
            ],
            "min" : [
                0
            ],
            "type" : "SCALAR"
        },
        {
            "bufferView" : 21,
            "componentType" : 5126,
            "count" : 210805,
            "max" : [
                28182.61328125,
                0.00048828125,
                16506.69140625
            ],
            "min" : [
                -39421.90625,
                -30470.595703125,
                -24817.8828125
            ],
            "type" : "VEC3"
        },
        {
            "bufferView" : 22,
            "componentType" : 5126,
            "count" : 210805,
            "max" : [
                1.0,
                1.0,
                1.0
            ],
            "min" : [
                -1.0,
                -1.0,
                -1.0
            ],
            "type" : "VEC3"
        },
        {
            "bufferView" : 23,
            "componentType" : 5126,
            "count" : 210805,
            "max" : [
                1.0,
                1.0,
                1.0,
                1.0
            ],
            "min" : [
                -1.0,
                -1.0,
                -1.0,
                -1.0
            ],
            "type" : "VEC4"
        },
        {
            "bufferView" : 24,
            "componentType" : 5126,
            "count" : 210805,
            "max" : [
                50264.71875,
                6757.45654296875
            ],
            "min" : [
                -51672.39453125,
                -34539.8828125
            ],
            "type" : "VEC2"
        },
        {
            "bufferView" : 25,
            "componentType" : 5123,
            "count" : 75879,
            "max" : [
                28672
            ],
            "min" : [
                0
            ],
            "type" : "SCALAR"
        },
        {
            "bufferView" : 26,
            "componentType" : 5126,
            "count" : 28673,
            "max" : [
                26780.87109375,
                5309.328125,
                16314.2421875
            ],
            "min" : [
                -38036.8046875,
                -30350.51171875,
                -22989.81640625
            ],
            "type" : "VEC3"
        },
        {
            "bufferView" : 27,
            "componentType" : 5126,
            "count" : 28673,
            "max" : [
                1.0,
                1.0,
                1.0
            ],
            "min" : [
                -1.0,
                -1.0,
                -1.0
            ],
            "type" : "VEC3"
        },
        {
            "bufferView" : 28,
            "componentType" : 5126,
            "count" : 28673,
            "max" : [
                1.0,
                0.9999145269393921,
                1.0,
                1.0
            ],
            "min" : [
                -1.0,
                -0.9997607469558716,
                -0.9998010396957397,
                -1.0
            ],
            "type" : "VEC4"
        },
        {
            "bufferView" : 29,
            "componentType" : 5126,
            "count" : 28673,
            "max" : [
                3349.370849609375,
                411.0
            ],
            "min" : [
                -13454.681640625,
                -2512.1025390625
            ],
            "type" : "VEC2"
        },
        {
            "bufferView" : 30,
            "componentType" : 5125,
            "count" : 164940,
            "max" : [
                70804
            ],
            "min" : [
                0
            ],
            "type" : "SCALAR"
        },
        {
            "bufferView" : 31,
            "componentType" : 5126,
            "count" : 70805,
            "max" : [
                27524.521484375,
                4189.328125,
                15908.00390625
            ],
            "min" : [
                -38208.96875,
                -30350.51171875,
                -23042.6015625
            ],
            "type" : "VEC3"
        },
        {
            "bufferView" : 32,
            "componentType" : 5126,
            "count" : 70805,
            "max" : [
                0.99993896484375,
                1.0,
                1.0
            ],
            "min" : [
                -1.0,
                -1.0,
                -0.9998779296875
            ],
            "type" : "VEC3"
        },
        {
            "bufferView" : 33,
            "componentType" : 5126,
            "count" : 70805,
            "max" : [
                1.0,
                0.9896050691604614,
                1.0,
                1.0
            ],
            "min" : [
                -1.0,
                -0.9908193349838257,
                -1.0,
                -1.0
            ],
            "type" : "VEC4"
        },
        {
            "bufferView" : 34,
            "componentType" : 5126,
            "count" : 70805,
            "max" : [
                22.645050048828125,
                13.829584121704102
            ],
            "min" : [
                -21.645050048828125,
                -12.13748550415039
            ],
            "type" : "VEC2"
        }
    ],
    "asset" : {
        "generator" : "Khronos Blender glTF 2.0 exporter",
        "version" : "2.0"
    },
    "bufferViews" : [
        {
            "buffer" : 0,
            "byteLength" : 167940,
            "byteOffset" : 0,
            "target" : 34963
        },
        {
            "buffer" : 0,
            "byteLength" : 179964,
            "byteOffset" : 167940,
            "target" : 34962
        },
        {
            "buffer" : 0,
            "byteLength" : 179964,
            "byteOffset" : 347904,
            "target" : 34962
        },
        {
            "buffer" : 0,
            "byteLength" : 239952,
            "byteOffset" : 527868,
            "target" : 34962
        },
        {
            "buffer" : 0,
            "byteLength" : 119976,
            "byteOffset" : 767820,
            "target" : 34962
        },
        {
            "buffer" : 0,
            "byteLength" : 360,
            "byteOffset" : 887796,
            "target" : 34963
        },
        {
            "buffer" : 0,
            "byteLength" : 960,
            "byteOffset" : 888156,
            "target" : 34962
        },
        {
            "buffer" : 0,
            "byteLength" : 960,
            "byteOffset" : 889116,
            "target" : 34962
        },
        {
            "buffer" : 0,
            "byteLength" : 1280,
            "byteOffset" : 890076,
            "target" : 34962
        },
        {
            "buffer" : 0,
            "byteLength" : 640,
            "byteOffset" : 891356,
            "target" : 34962
        },
        {
            "buffer" : 0,
            "byteLength" : 2076780,
            "byteOffset" : 891996,
            "target" : 34963
        },
        {
            "buffer" : 0,
            "byteLength" : 1408596,
            "byteOffset" : 2968776,
            "target" : 34962
        },
        {
            "buffer" : 0,
            "byteLength" : 1408596,
            "byteOffset" : 4377372,
            "target" : 34962
        },
        {
            "buffer" : 0,
            "byteLength" : 1878128,
            "byteOffset" : 5785968,
            "target" : 34962
        },
        {
            "buffer" : 0,
            "byteLength" : 939064,
            "byteOffset" : 7664096,
            "target" : 34962
        },
        {
            "buffer" : 0,
            "byteLength" : 845724,
            "byteOffset" : 8603160,
            "target" : 34963
        },
        {
            "buffer" : 0,
            "byteLength" : 1091352,
            "byteOffset" : 9448884,
            "target" : 34962
        },
        {
            "buffer" : 0,
            "byteLength" : 1091352,
            "byteOffset" : 10540236,
            "target" : 34962
        },
        {
            "buffer" : 0,
            "byteLength" : 1455136,
            "byteOffset" : 11631588,
            "target" : 34962
        },
        {
            "buffer" : 0,
            "byteLength" : 727568,
            "byteOffset" : 13086724,
            "target" : 34962
        },
        {
            "buffer" : 0,
            "byteLength" : 4033380,
            "byteOffset" : 13814292,
            "target" : 34963
        },
        {
            "buffer" : 0,
            "byteLength" : 2529660,
            "byteOffset" : 17847672,
            "target" : 34962
        },
        {
            "buffer" : 0,
            "byteLength" : 2529660,
            "byteOffset" : 20377332,
            "target" : 34962
        },
        {
            "buffer" : 0,
            "byteLength" : 3372880,
            "byteOffset" : 22906992,
            "target" : 34962
        },
        {
            "buffer" : 0,
            "byteLength" : 1686440,
            "byteOffset" : 26279872,
            "target" : 34962
        },
        {
            "buffer" : 0,
            "byteLength" : 151758,
            "byteOffset" : 27966312,
            "target" : 34963
        },
        {
            "buffer" : 0,
            "byteLength" : 344076,
            "byteOffset" : 28118072,
            "target" : 34962
        },
        {
            "buffer" : 0,
            "byteLength" : 344076,
            "byteOffset" : 28462148,
            "target" : 34962
        },
        {
            "buffer" : 0,
            "byteLength" : 458768,
            "byteOffset" : 28806224,
            "target" : 34962
        },
        {
            "buffer" : 0,
            "byteLength" : 229384,
            "byteOffset" : 29264992,
            "target" : 34962
        },
        {
            "buffer" : 0,
            "byteLength" : 659760,
            "byteOffset" : 29494376,
            "target" : 34963
        },
        {
            "buffer" : 0,
            "byteLength" : 849660,
            "byteOffset" : 30154136,
            "target" : 34962
        },
        {
            "buffer" : 0,
            "byteLength" : 849660,
            "byteOffset" : 31003796,
            "target" : 34962
        },
        {
            "buffer" : 0,
            "byteLength" : 1132880,
            "byteOffset" : 31853456,
            "target" : 34962
        },
        {
            "buffer" : 0,
            "byteLength" : 566440,
            "byteOffset" : 32986336,
            "target" : 34962
        }
    ],
    "buffers" : [
        {
            "byteLength" : 33552776,
            "uri" : "26.bin"
        }
    ],
    "materials" : [
        {
            "name" : "Material #25.001",
            "pbrMetallicRoughness" : {
                "baseColorFactor" : [
                    0.5113725738431896,
                    0.35764706667731794,
                    0.2478431500173084,
                    1.0
                ],
                "metallicFactor" : 0.0
            }
        },
        {
            "name" : "Material #26.001",
            "pbrMetallicRoughness" : {
                "baseColorFactor" : [
                    0.5803921786009099,
                    0.5270588476517624,
                    0.45176473337061296,
                    1.0
                ],
                "metallicFactor" : 0.0
            }
        },
        {
            "name" : "Material #27.001",
            "pbrMetallicRoughness" : {
                "baseColorFactor" : [
                    0.1756862785769444,
                    0.1756862785769444,
                    0.1756862785769444,
                    1.0
                ],
                "metallicFactor" : 0.0
            }
        },
        {
            "name" : "Material #28.001",
            "pbrMetallicRoughness" : {
                "baseColorFactor" : [
                    0.16000000476837162,
                    0.16000000476837162,
                    0.16000000476837162,
                    1.0
                ],
                "metallicFactor" : 0.0
            }
        },
        {
            "name" : "Material #29.001",
            "pbrMetallicRoughness" : {
                "baseColorFactor" : [
                    0.6996078595460631,
                    0.5992157071711972,
                    0.4705882619409003,
                    1.0
                ],
                "metallicFactor" : 0.0
            }
        },
        {
            "alphaMode" : "BLEND",
            "name" : "Material #30.001",
            "pbrMetallicRoughness" : {
                "baseColorFactor" : [
                    0.4705882619409003,
                    0.4705882619409003,
                    0.4705882619409003,
                    0.8500000238418579
                ],
                "metallicFactor" : 0.0
            }
        },
        {
            "name" : "Material #31.001",
            "pbrMetallicRoughness" : {
                "baseColorFactor" : [
                    0.5803921786009099,
                    0.5270588476517624,
                    0.45176473337061296,
                    1.0
                ],
                "metallicFactor" : 0.0
            }
        }
    ],
    "meshes" : [
        {
            "name" : "Line12917",
            "primitives" : [
                {
                    "attributes" : {
                        "NORMAL" : 2,
                        "POSITION" : 1,
                        "TANGENT" : 3,
                        "TEXCOORD_0" : 4
                    },
                    "indices" : 0,
                    "material" : 5
                },
                {
                    "attributes" : {
                        "NORMAL" : 7,
                        "POSITION" : 6,
                        "TANGENT" : 8,
                        "TEXCOORD_0" : 9
                    },
                    "indices" : 5,
                    "material" : 6
                },
                {
                    "attributes" : {
                        "NORMAL" : 12,
                        "POSITION" : 11,
                        "TANGENT" : 13,
                        "TEXCOORD_0" : 14
                    },
                    "indices" : 10,
                    "material" : 2
                },
                {
                    "attributes" : {
                        "NORMAL" : 17,
                        "POSITION" : 16,
                        "TANGENT" : 18,
                        "TEXCOORD_0" : 19
                    },
                    "indices" : 15,
                    "material" : 3
                },
                {
                    "attributes" : {
                        "NORMAL" : 22,
                        "POSITION" : 21,
                        "TANGENT" : 23,
                        "TEXCOORD_0" : 24
                    },
                    "indices" : 20,
                    "material" : 1
                },
                {
                    "attributes" : {
                        "NORMAL" : 27,
                        "POSITION" : 26,
                        "TANGENT" : 28,
                        "TEXCOORD_0" : 29
                    },
                    "indices" : 25,
                    "material" : 4
                },
                {
                    "attributes" : {
                        "NORMAL" : 32,
                        "POSITION" : 31,
                        "TANGENT" : 33,
                        "TEXCOORD_0" : 34
                    },
                    "indices" : 30,
                    "material" : 0
                }
            ]
        }
    ],
    "nodes" : [
        {
            "mesh" : 0,
            "name" : "Line12917",
            "rotation" : [
                -0.0013411185937002301,
                -0.0007300721481442451,
                -0.0005923146964050829,
                0.9999986886978149
            ],
            "scale" : [
                0.0010000000474974513,
                0.0010000000474974513,
                0.0010000000474974513
            ],
            "translation" : [
                -0.00031280517578125,
                21.55118179321289,
                -0.003173828125
            ]
        }
    ],
    "scene" : 0,
    "scenes" : [
        {
            "name" : "Scene",
            "nodes" : [
                0
            ]
        }
    ]
}
